<svg id="Layer_1" data-name="Layer 1" xmlns="http://www.w3.org/2000/svg" viewBox="0 0 800 800"><defs><style>.cls-1{fill:#ffe989;}.cls-2{fill:teal;}</style></defs><circle class="cls-1" cx="391.91" cy="739.79" r="36.21"/><rect class="cls-1" x="355.71" y="24" width="72.93" height="644.31" rx="36.47"/><path class="cls-2" d="M441.22,242.57A82.9,82.9,0,0,1,471.87,264c13.75,15.38,34.95,22.48,55.11,16.6l52-15.17c34.33-10,48.37-50.41,26.07-77.47q-42.26-51.27-112.86-70.21c-15.92-4.27-32.92-25.09-51-26.89v151.7Z"/><path class="cls-2" d="M342.6,475.2V290.35q-8.14-8.1-8.16-20.49,0-13.2,8.16-21.52V92.48c-12.88,1.69-25.14,21.77-36.77,24.67q-53.29,13.28-89.06,43.37-64,53.85-64,135,0,63.1,44.53,109.8,29.29,30.75,107.24,53.78C316.41,462.65,329.08,472,342.6,475.2Z"/><path class="cls-2" d="M342.6,550.14c-4.67-2.09-9.06-2.26-13.16-4.94a84.39,84.39,0,0,1-23.17-22.42,53,53,0,0,0-52.35-22.06l-68.8,11.93c-34.74,6-53.46,43.48-35.86,73q52.86,88.47,171.84,107.55c11.36,1.82,21.5-8.09,21.5-20.89Z"/><path class="cls-2" d="M626.4,407.4Q596.3,366.79,551.31,350q-29.56-11-85.91-24.21c-7.68-1.8-15.74-13.46-24.18-15.32V490.19a.9.9,0,0,0,.39.75l12.95,8.35q15.94,10.31,15.94,28.81,0,16.42-14.94,25.22c-4,2.34-8.76-4.49-14.34-3V671.91c0,12.87,10.26,22.78,21.68,20.87q70.62-11.84,120.25-48.42,73.35-54.08,73.36-141.2Q656.51,448,626.4,407.4Z"/></svg>